# Wavefront OBJ file automatically generated by Tiled2Unity

# Vertices (Count = 307)
v -112 -240 0
v -128 -240 0
v -128 -224 0
v -112 -224 0
v -144 -240 0
v -144 -224 0
v -160 -240 0
v -160 -224 0
v -176 -240 0
v -176 -224 0
v -192 -240 0
v -192 -224 0
v -208 -240 0
v -208 -224 0
v -224 -240 0
v -224 -224 0
v -240 -240 0
v -240 -224 0
v -256 -240 0
v -256 -224 0
v -272 -240 0
v -272 -224 0
v -288 -240 0
v -288 -224 0
v -304 -240 0
v -304 -224 0
v -320 -240 0
v -320 -224 0
v -336 -240 0
v -336 -224 0
v -352 -240 0
v -352 -224 0
v -368 -240 0
v -368 -224 0
v -384 -240 0
v -384 -224 0
v -400 -240 0
v -400 -224 0
v -416 -240 0
v -416 -224 0
v -432 -240 0
v -432 -224 0
v -448 -240 0
v -448 -224 0
v -464 -240 0
v -464 -224 0
v -480 -240 0
v -480 -224 0
v -496 -240 0
v -496 -224 0
v -512 -240 0
v -512 -224 0
v -528 -240 0
v -528 -224 0
v -544 -240 0
v -544 -224 0
v -560 -240 0
v -560 -224 0
v -576 -240 0
v -576 -224 0
v -592 -240 0
v -592 -224 0
v -112 -256 0
v -128 -256 0
v -576 -256 0
v -592 -256 0
v -112 -272 0
v -128 -272 0
v -576 -272 0
v -592 -272 0
v -112 -288 0
v -128 -288 0
v -576 -288 0
v -592 -288 0
v -112 -304 0
v -128 -304 0
v -576 -304 0
v -592 -304 0
v -112 -320 0
v -128 -320 0
v -576 -320 0
v -592 -320 0
v -112 -336 0
v -128 -336 0
v -576 -336 0
v -592 -336 0
v -112 -352 0
v -128 -352 0
v -352 -352 0
v -368 -352 0
v -368 -336 0
v -352 -336 0
v -384 -352 0
v -384 -336 0
v -400 -352 0
v -400 -336 0
v -416 -352 0
v -416 -336 0
v -432 -352 0
v -432 -336 0
v -448 -352 0
v -448 -336 0
v -464 -352 0
v -464 -336 0
v -576 -352 0
v -592 -352 0
v -112 -368 0
v -128 -368 0
v -352 -368 0
v -368 -368 0
v -384 -368 0
v -400 -368 0
v -416 -368 0
v -432 -368 0
v -448 -368 0
v -464 -368 0
v -576 -368 0
v -592 -368 0
v -112 -384 0
v -128 -384 0
v -352 -384 0
v -368 -384 0
v -384 -384 0
v -400 -384 0
v -416 -384 0
v -432 -384 0
v -448 -384 0
v -464 -384 0
v -576 -384 0
v -592 -384 0
v -112 -400 0
v -128 -400 0
v -352 -400 0
v -368 -400 0
v -384 -400 0
v -400 -400 0
v -416 -400 0
v -432 -400 0
v -448 -400 0
v -464 -400 0
v -576 -400 0
v -592 -400 0
v -112 -416 0
v -128 -416 0
v -352 -416 0
v -368 -416 0
v -384 -416 0
v -400 -416 0
v -416 -416 0
v -432 -416 0
v -448 -416 0
v -464 -416 0
v -576 -416 0
v -592 -416 0
v -112 -432 0
v -128 -432 0
v -352 -432 0
v -368 -432 0
v -384 -432 0
v -400 -432 0
v -416 -432 0
v -432 -432 0
v -448 -432 0
v -464 -432 0
v -576 -432 0
v -592 -432 0
v -112 -448 0
v -128 -448 0
v -352 -448 0
v -368 -448 0
v -384 -448 0
v -400 -448 0
v -416 -448 0
v -432 -448 0
v -448 -448 0
v -464 -448 0
v -576 -448 0
v -592 -448 0
v -112 -464 0
v -128 -464 0
v -352 -464 0
v -368 -464 0
v -384 -464 0
v -400 -464 0
v -416 -464 0
v -432 -464 0
v -448 -464 0
v -464 -464 0
v -576 -464 0
v -592 -464 0
v -112 -480 0
v -128 -480 0
v -352 -480 0
v -368 -480 0
v -384 -480 0
v -400 -480 0
v -416 -480 0
v -432 -480 0
v -448 -480 0
v -464 -480 0
v -576 -480 0
v -592 -480 0
v -112 -496 0
v -128 -496 0
v -352 -496 0
v -368 -496 0
v -384 -496 0
v -400 -496 0
v -416 -496 0
v -432 -496 0
v -448 -496 0
v -464 -496 0
v -576 -496 0
v -592 -496 0
v -112 -512 0
v -128 -512 0
v -352 -512 0
v -368 -512 0
v -384 -512 0
v -400 -512 0
v -416 -512 0
v -432 -512 0
v -448 -512 0
v -464 -512 0
v -576 -512 0
v -592 -512 0
v -112 -528 0
v -128 -528 0
v -144 -528 0
v -144 -512 0
v -160 -528 0
v -160 -512 0
v -176 -528 0
v -176 -512 0
v -192 -528 0
v -192 -512 0
v -208 -528 0
v -208 -512 0
v -224 -528 0
v -224 -512 0
v -240 -528 0
v -240 -512 0
v -256 -528 0
v -256 -512 0
v -272 -528 0
v -272 -512 0
v -288 -528 0
v -288 -512 0
v -304 -528 0
v -304 -512 0
v -320 -528 0
v -320 -512 0
v -336 -528 0
v -336 -512 0
v -352 -528 0
v -368 -528 0
v -384 -528 0
v -400 -528 0
v -416 -528 0
v -432 -528 0
v -448 -528 0
v -464 -528 0
v -480 -528 0
v -480 -512 0
v -496 -528 0
v -496 -512 0
v -512 -528 0
v -512 -512 0
v -528 -528 0
v -528 -512 0
v -544 -528 0
v -544 -512 0
v -560 -528 0
v -560 -512 0
v -576 -528 0
v -592 -528 0
v -112 -544 0
v -128 -544 0
v -144 -544 0
v -160 -544 0
v -176 -544 0
v -192 -544 0
v -208 -544 0
v -224 -544 0
v -240 -544 0
v -256 -544 0
v -272 -544 0
v -288 -544 0
v -304 -544 0
v -320 -544 0
v -336 -544 0
v -352 -544 0
v -368 -544 0
v -384 -544 0
v -400 -544 0
v -416 -544 0
v -432 -544 0
v -448 -544 0
v -464 -544 0
v -480 -544 0
v -496 -544 0
v -512 -544 0
v -528 -544 0
v -544 -544 0
v -560 -544 0
v -576 -544 0
v -592 -544 0

# Texture cooridinates (Count = 4)
vt 0.0001220703 0.0001220703
vt 0.9998779 0.0001220703
vt 0.9998779 0.9998779
vt 0.0001220703 0.9998779

# Normal
vn 0 0 -1

# Groups (Count = 1)

g mesh_0001
f 1/1/1 2/2/1 3/3/1 4/4/1
f 2/1/1 5/2/1 6/3/1 3/4/1
f 5/1/1 7/2/1 8/3/1 6/4/1
f 7/1/1 9/2/1 10/3/1 8/4/1
f 9/1/1 11/2/1 12/3/1 10/4/1
f 11/1/1 13/2/1 14/3/1 12/4/1
f 13/1/1 15/2/1 16/3/1 14/4/1
f 15/1/1 17/2/1 18/3/1 16/4/1
f 17/1/1 19/2/1 20/3/1 18/4/1
f 19/1/1 21/2/1 22/3/1 20/4/1
f 21/1/1 23/2/1 24/3/1 22/4/1
f 23/1/1 25/2/1 26/3/1 24/4/1
f 25/1/1 27/2/1 28/3/1 26/4/1
f 27/1/1 29/2/1 30/3/1 28/4/1
f 29/1/1 31/2/1 32/3/1 30/4/1
f 31/1/1 33/2/1 34/3/1 32/4/1
f 33/1/1 35/2/1 36/3/1 34/4/1
f 35/1/1 37/2/1 38/3/1 36/4/1
f 37/1/1 39/2/1 40/3/1 38/4/1
f 39/1/1 41/2/1 42/3/1 40/4/1
f 41/1/1 43/2/1 44/3/1 42/4/1
f 43/1/1 45/2/1 46/3/1 44/4/1
f 45/1/1 47/2/1 48/3/1 46/4/1
f 47/1/1 49/2/1 50/3/1 48/4/1
f 49/1/1 51/2/1 52/3/1 50/4/1
f 51/1/1 53/2/1 54/3/1 52/4/1
f 53/1/1 55/2/1 56/3/1 54/4/1
f 55/1/1 57/2/1 58/3/1 56/4/1
f 57/1/1 59/2/1 60/3/1 58/4/1
f 59/1/1 61/2/1 62/3/1 60/4/1
f 63/1/1 64/2/1 2/3/1 1/4/1
f 65/1/1 66/2/1 61/3/1 59/4/1
f 67/1/1 68/2/1 64/3/1 63/4/1
f 69/1/1 70/2/1 66/3/1 65/4/1
f 71/1/1 72/2/1 68/3/1 67/4/1
f 73/1/1 74/2/1 70/3/1 69/4/1
f 75/1/1 76/2/1 72/3/1 71/4/1
f 77/1/1 78/2/1 74/3/1 73/4/1
f 79/1/1 80/2/1 76/3/1 75/4/1
f 81/1/1 82/2/1 78/3/1 77/4/1
f 83/1/1 84/2/1 80/3/1 79/4/1
f 85/1/1 86/2/1 82/3/1 81/4/1
f 87/1/1 88/2/1 84/3/1 83/4/1
f 89/1/1 90/2/1 91/3/1 92/4/1
f 90/1/1 93/2/1 94/3/1 91/4/1
f 93/1/1 95/2/1 96/3/1 94/4/1
f 95/1/1 97/2/1 98/3/1 96/4/1
f 97/1/1 99/2/1 100/3/1 98/4/1
f 99/1/1 101/2/1 102/3/1 100/4/1
f 101/1/1 103/2/1 104/3/1 102/4/1
f 105/1/1 106/2/1 86/3/1 85/4/1
f 107/1/1 108/2/1 88/3/1 87/4/1
f 109/1/1 110/2/1 90/3/1 89/4/1
f 110/1/1 111/2/1 93/3/1 90/4/1
f 111/1/1 112/2/1 95/3/1 93/4/1
f 112/1/1 113/2/1 97/3/1 95/4/1
f 113/1/1 114/2/1 99/3/1 97/4/1
f 114/1/1 115/2/1 101/3/1 99/4/1
f 115/1/1 116/2/1 103/3/1 101/4/1
f 117/1/1 118/2/1 106/3/1 105/4/1
f 119/1/1 120/2/1 108/3/1 107/4/1
f 121/1/1 122/2/1 110/3/1 109/4/1
f 122/1/1 123/2/1 111/3/1 110/4/1
f 123/1/1 124/2/1 112/3/1 111/4/1
f 124/1/1 125/2/1 113/3/1 112/4/1
f 125/1/1 126/2/1 114/3/1 113/4/1
f 126/1/1 127/2/1 115/3/1 114/4/1
f 127/1/1 128/2/1 116/3/1 115/4/1
f 129/1/1 130/2/1 118/3/1 117/4/1
f 131/1/1 132/2/1 120/3/1 119/4/1
f 133/1/1 134/2/1 122/3/1 121/4/1
f 134/1/1 135/2/1 123/3/1 122/4/1
f 135/1/1 136/2/1 124/3/1 123/4/1
f 136/1/1 137/2/1 125/3/1 124/4/1
f 137/1/1 138/2/1 126/3/1 125/4/1
f 138/1/1 139/2/1 127/3/1 126/4/1
f 139/1/1 140/2/1 128/3/1 127/4/1
f 141/1/1 142/2/1 130/3/1 129/4/1
f 143/1/1 144/2/1 132/3/1 131/4/1
f 145/1/1 146/2/1 134/3/1 133/4/1
f 146/1/1 147/2/1 135/3/1 134/4/1
f 147/1/1 148/2/1 136/3/1 135/4/1
f 148/1/1 149/2/1 137/3/1 136/4/1
f 149/1/1 150/2/1 138/3/1 137/4/1
f 150/1/1 151/2/1 139/3/1 138/4/1
f 151/1/1 152/2/1 140/3/1 139/4/1
f 153/1/1 154/2/1 142/3/1 141/4/1
f 155/1/1 156/2/1 144/3/1 143/4/1
f 157/1/1 158/2/1 146/3/1 145/4/1
f 158/1/1 159/2/1 147/3/1 146/4/1
f 159/1/1 160/2/1 148/3/1 147/4/1
f 160/1/1 161/2/1 149/3/1 148/4/1
f 161/1/1 162/2/1 150/3/1 149/4/1
f 162/1/1 163/2/1 151/3/1 150/4/1
f 163/1/1 164/2/1 152/3/1 151/4/1
f 165/1/1 166/2/1 154/3/1 153/4/1
f 167/1/1 168/2/1 156/3/1 155/4/1
f 169/1/1 170/2/1 158/3/1 157/4/1
f 170/1/1 171/2/1 159/3/1 158/4/1
f 171/1/1 172/2/1 160/3/1 159/4/1
f 172/1/1 173/2/1 161/3/1 160/4/1
f 173/1/1 174/2/1 162/3/1 161/4/1
f 174/1/1 175/2/1 163/3/1 162/4/1
f 175/1/1 176/2/1 164/3/1 163/4/1
f 177/1/1 178/2/1 166/3/1 165/4/1
f 179/1/1 180/2/1 168/3/1 167/4/1
f 181/1/1 182/2/1 170/3/1 169/4/1
f 182/1/1 183/2/1 171/3/1 170/4/1
f 183/1/1 184/2/1 172/3/1 171/4/1
f 184/1/1 185/2/1 173/3/1 172/4/1
f 185/1/1 186/2/1 174/3/1 173/4/1
f 186/1/1 187/2/1 175/3/1 174/4/1
f 187/1/1 188/2/1 176/3/1 175/4/1
f 189/1/1 190/2/1 178/3/1 177/4/1
f 191/1/1 192/2/1 180/3/1 179/4/1
f 193/1/1 194/2/1 182/3/1 181/4/1
f 194/1/1 195/2/1 183/3/1 182/4/1
f 195/1/1 196/2/1 184/3/1 183/4/1
f 196/1/1 197/2/1 185/3/1 184/4/1
f 197/1/1 198/2/1 186/3/1 185/4/1
f 198/1/1 199/2/1 187/3/1 186/4/1
f 199/1/1 200/2/1 188/3/1 187/4/1
f 201/1/1 202/2/1 190/3/1 189/4/1
f 203/1/1 204/2/1 192/3/1 191/4/1
f 205/1/1 206/2/1 194/3/1 193/4/1
f 206/1/1 207/2/1 195/3/1 194/4/1
f 207/1/1 208/2/1 196/3/1 195/4/1
f 208/1/1 209/2/1 197/3/1 196/4/1
f 209/1/1 210/2/1 198/3/1 197/4/1
f 210/1/1 211/2/1 199/3/1 198/4/1
f 211/1/1 212/2/1 200/3/1 199/4/1
f 213/1/1 214/2/1 202/3/1 201/4/1
f 215/1/1 216/2/1 204/3/1 203/4/1
f 217/1/1 218/2/1 206/3/1 205/4/1
f 218/1/1 219/2/1 207/3/1 206/4/1
f 219/1/1 220/2/1 208/3/1 207/4/1
f 220/1/1 221/2/1 209/3/1 208/4/1
f 221/1/1 222/2/1 210/3/1 209/4/1
f 222/1/1 223/2/1 211/3/1 210/4/1
f 223/1/1 224/2/1 212/3/1 211/4/1
f 225/1/1 226/2/1 214/3/1 213/4/1
f 227/1/1 228/2/1 216/3/1 215/4/1
f 228/1/1 229/2/1 230/3/1 216/4/1
f 229/1/1 231/2/1 232/3/1 230/4/1
f 231/1/1 233/2/1 234/3/1 232/4/1
f 233/1/1 235/2/1 236/3/1 234/4/1
f 235/1/1 237/2/1 238/3/1 236/4/1
f 237/1/1 239/2/1 240/3/1 238/4/1
f 239/1/1 241/2/1 242/3/1 240/4/1
f 241/1/1 243/2/1 244/3/1 242/4/1
f 243/1/1 245/2/1 246/3/1 244/4/1
f 245/1/1 247/2/1 248/3/1 246/4/1
f 247/1/1 249/2/1 250/3/1 248/4/1
f 249/1/1 251/2/1 252/3/1 250/4/1
f 251/1/1 253/2/1 254/3/1 252/4/1
f 253/1/1 255/2/1 217/3/1 254/4/1
f 255/1/1 256/2/1 218/3/1 217/4/1
f 256/1/1 257/2/1 219/3/1 218/4/1
f 257/1/1 258/2/1 220/3/1 219/4/1
f 258/1/1 259/2/1 221/3/1 220/4/1
f 259/1/1 260/2/1 222/3/1 221/4/1
f 260/1/1 261/2/1 223/3/1 222/4/1
f 261/1/1 262/2/1 224/3/1 223/4/1
f 262/1/1 263/2/1 264/3/1 224/4/1
f 263/1/1 265/2/1 266/3/1 264/4/1
f 265/1/1 267/2/1 268/3/1 266/4/1
f 267/1/1 269/2/1 270/3/1 268/4/1
f 269/1/1 271/2/1 272/3/1 270/4/1
f 271/1/1 273/2/1 274/3/1 272/4/1
f 273/1/1 275/2/1 225/3/1 274/4/1
f 275/1/1 276/2/1 226/3/1 225/4/1
f 277/1/1 278/2/1 228/3/1 227/4/1
f 278/1/1 279/2/1 229/3/1 228/4/1
f 279/1/1 280/2/1 231/3/1 229/4/1
f 280/1/1 281/2/1 233/3/1 231/4/1
f 281/1/1 282/2/1 235/3/1 233/4/1
f 282/1/1 283/2/1 237/3/1 235/4/1
f 283/1/1 284/2/1 239/3/1 237/4/1
f 284/1/1 285/2/1 241/3/1 239/4/1
f 285/1/1 286/2/1 243/3/1 241/4/1
f 286/1/1 287/2/1 245/3/1 243/4/1
f 287/1/1 288/2/1 247/3/1 245/4/1
f 288/1/1 289/2/1 249/3/1 247/4/1
f 289/1/1 290/2/1 251/3/1 249/4/1
f 290/1/1 291/2/1 253/3/1 251/4/1
f 291/1/1 292/2/1 255/3/1 253/4/1
f 292/1/1 293/2/1 256/3/1 255/4/1
f 293/1/1 294/2/1 257/3/1 256/4/1
f 294/1/1 295/2/1 258/3/1 257/4/1
f 295/1/1 296/2/1 259/3/1 258/4/1
f 296/1/1 297/2/1 260/3/1 259/4/1
f 297/1/1 298/2/1 261/3/1 260/4/1
f 298/1/1 299/2/1 262/3/1 261/4/1
f 299/1/1 300/2/1 263/3/1 262/4/1
f 300/1/1 301/2/1 265/3/1 263/4/1
f 301/1/1 302/2/1 267/3/1 265/4/1
f 302/1/1 303/2/1 269/3/1 267/4/1
f 303/1/1 304/2/1 271/3/1 269/4/1
f 304/1/1 305/2/1 273/3/1 271/4/1
f 305/1/1 306/2/1 275/3/1 273/4/1
f 306/1/1 307/2/1 276/3/1 275/4/1

